# Blender v2.78 (sub 0) OBJ File: ''
# www.blender.org
mtllib untitled_PARTE1.mtl
o Cube.001
v -3.596362 1.028994 4.142792
v -5.753908 1.020756 4.135060
v -3.580292 1.469095 4.141801
v -5.874710 1.477333 4.167593
v -2.124178 1.028994 4.132119
v -2.073156 1.469095 4.107566
v -0.251970 1.028994 4.114618
v -0.200949 1.469095 4.090065
v -3.592234 1.469095 3.705750
v -5.851997 1.469095 3.720156
v -2.096501 1.469095 3.679168
v -0.244479 1.469095 3.639912
v 0.213546 1.028994 4.090549
v 0.669312 1.028994 4.079153
v 0.680379 1.469095 4.058187
v 0.224748 1.469095 4.069584
v 0.215625 1.469095 3.628515
v 0.675730 1.469095 3.617117
v 0.209031 1.519472 3.649297
v 0.666995 1.526625 3.637899
v -2.701660 1.028994 4.141505
v -3.213156 1.028994 4.140106
v -3.228001 1.469095 4.119536
v -2.689235 1.469095 4.119956
v -3.241489 1.469095 3.681927
v -2.702772 1.469095 3.680772
v -3.247992 0.801916 3.702314
v -2.708342 1.034396 3.702139
v 0.184547 -1.177449 4.112162
v 0.639993 -1.177449 4.100738
v 0.180151 -1.177449 3.670919
v 0.637795 -1.177449 3.659495
v -2.704422 -1.177449 4.142664
v -3.238137 -1.177449 4.143365
v -3.244680 -1.177449 3.705584
v -2.710988 -1.177449 3.703307
v 5.846790 1.028994 4.142792
v 8.004336 1.020756 4.135060
v 5.830720 1.469095 4.141801
v 8.125138 1.477333 4.167593
v 4.374606 1.028994 4.132119
v 4.323585 1.469095 4.107566
v 2.502398 1.028994 4.114618
v 2.451377 1.469095 4.090065
v 1.125214 1.028994 4.067754
v 1.125214 1.469095 4.046796
v 5.842662 1.469095 3.705750
v 8.102425 1.469095 3.720156
v 4.346929 1.469095 3.679168
v 2.494907 1.469095 3.639912
v 1.125214 1.534254 3.626501
v 1.125214 1.469095 3.605726
v 2.036882 1.028994 4.090549
v 1.581116 1.028994 4.079153
v 1.570049 1.469095 4.058187
v 2.025681 1.469095 4.069584
v 2.034803 1.469095 3.628515
v 1.574699 1.469095 3.617117
v 2.041397 1.519472 3.649297
v 1.583433 1.526625 3.637899
v 4.952088 1.028994 4.141505
v 5.463584 1.028994 4.140106
v 5.478429 1.469095 4.119536
v 4.939663 1.469095 4.119956
v 5.491917 1.469095 3.681927
v 4.953200 1.469095 3.680772
v 5.498420 0.801916 3.702314
v 4.958771 1.034396 3.702139
v 2.065881 -1.177449 4.112162
v 1.610435 -1.177449 4.100738
v 2.070277 -1.177449 3.670919
v 1.612633 -1.177449 3.659495
v 4.954851 -1.177449 4.142664
v 5.488565 -1.177449 4.143365
v 5.495109 -1.177449 3.705584
v 4.961416 -1.177449 3.703307
v -3.596362 1.028994 -3.044737
v -5.753908 1.020756 -3.037006
v -3.580292 1.469095 -3.043746
v -5.874710 1.477333 -3.069538
v -2.124178 1.028994 -3.034065
v -2.073156 1.469095 -3.009511
v -0.251970 1.028994 -3.016563
v -0.200949 1.469095 -2.992010
v -3.592234 1.469095 -2.607695
v -5.851997 1.469095 -2.622102
v -2.096501 1.469095 -2.581114
v -0.244479 1.469095 -2.541857
v 0.213546 1.028994 -2.992495
v 0.669312 1.028994 -2.981098
v 0.680379 1.469095 -2.960132
v 0.224748 1.469095 -2.971529
v 0.215625 1.469095 -2.530460
v 0.675730 1.469095 -2.519063
v 0.209031 1.519472 -2.551242
v 0.666995 1.526625 -2.539845
v -2.701660 1.028994 -3.043450
v -3.213156 1.028994 -3.042051
v -3.228001 1.469095 -3.021482
v -2.689235 1.469095 -3.021901
v -3.241489 1.469095 -2.583872
v -2.702772 1.469095 -2.582717
v -3.247992 0.801916 -2.604259
v -2.708342 1.034396 -2.604084
v -3.663829 1.518378 0.549027
v -2.181033 1.518378 0.549027
v -0.329012 1.518378 0.549027
v -5.874216 1.518378 0.549027
v 0.158906 1.518378 0.549027
v 0.646824 1.518378 0.549027
v -3.325358 1.518378 0.549027
v -2.786942 1.518378 0.549027
v 0.184547 -1.177449 -3.014107
v 0.639993 -1.177449 -3.002683
v 0.180151 -1.177449 -2.572864
v 0.637795 -1.177449 -2.561440
v -2.704422 -1.177449 -3.044609
v -3.238137 -1.177449 -3.045310
v -3.244680 -1.177449 -2.607529
v -2.710988 -1.177449 -2.605253
v 5.846790 1.028994 -3.044737
v 8.004336 1.020756 -3.037006
v 5.830720 1.469095 -3.043746
v 8.125138 1.477333 -3.069538
v 4.374606 1.028994 -3.034065
v 4.323585 1.469095 -3.009511
v 2.502398 1.028994 -3.016563
v 2.451377 1.469095 -2.992010
v 1.125214 1.028994 -2.969699
v 1.125214 1.469095 -2.948741
v 5.842662 1.469095 -2.607695
v 8.102425 1.469095 -2.622102
v 4.346929 1.469095 -2.581114
v 2.494907 1.469095 -2.541857
v 1.125214 1.534254 -2.528446
v 1.125214 1.469095 -2.507671
v 2.036882 1.028994 -2.992495
v 1.581116 1.028994 -2.981098
v 1.570049 1.469095 -2.960132
v 2.025681 1.469095 -2.971529
v 2.034803 1.469095 -2.530460
v 1.574699 1.469095 -2.519063
v 2.041397 1.519472 -2.551242
v 1.583433 1.526625 -2.539845
v 4.952088 1.028994 -3.043450
v 5.463584 1.028994 -3.042051
v 5.478429 1.469095 -3.021482
v 4.939663 1.469095 -3.021901
v 5.491917 1.469095 -2.583872
v 4.953200 1.469095 -2.582717
v 5.498420 0.801916 -2.604259
v 4.958771 1.034396 -2.604084
v 5.914257 1.518378 0.549027
v 4.431461 1.518378 0.549027
v 2.579441 1.518378 0.549027
v 1.125214 1.518378 0.549027
v 8.124643 1.518378 0.549027
v 2.091522 1.518378 0.549027
v 1.603604 1.518378 0.549027
v 5.575786 1.518378 0.549027
v 5.037371 1.518378 0.549027
v 2.065881 -1.177449 -3.014107
v 1.610435 -1.177449 -3.002683
v 2.070277 -1.177449 -2.572864
v 1.612633 -1.177449 -2.561440
v 4.954851 -1.177449 -3.044609
v 5.488565 -1.177449 -3.045310
v 5.495109 -1.177449 -2.607529
v 4.961416 -1.177449 -2.605253
vt 0.6813 0.7583
vt 0.3930 0.7583
vt 0.3927 0.7078
vt 0.6813 0.7078
vt 0.2401 0.4720
vt 0.2401 0.5584
vt 0.0161 0.5584
vt 0.0161 0.4720
vt 0.4284 0.5584
vt 0.4284 0.4720
vt 0.6274 0.4720
vt 0.6274 0.5584
vt 0.2261 0.9569
vt 0.2266 0.9060
vt 0.3000 0.9060
vt 0.2995 0.9569
vt 0.3606 0.5584
vt 0.3606 0.4720
vt 0.7210 0.5584
vt 0.7210 0.4720
vt 0.7678 0.4720
vt 0.7678 0.5584
vt 0.5166 0.9060
vt 0.5166 0.9569
vt 0.9231 0.7122
vt 0.9231 0.6612
vt 0.9760 0.6612
vt 0.9760 0.7122
vt 0.8827 0.2454
vt 0.8827 0.0151
vt 0.9375 0.0151
vt 0.9375 0.2454
vt 0.5563 0.2454
vt 0.5563 0.0151
vt 0.7731 0.0151
vt 0.7731 0.2454
vt 0.4819 0.2454
vt 0.4839 0.0151
vt 0.3498 0.2454
vt 0.0653 0.2454
vt 0.0653 0.0151
vt 0.3498 0.0151
vt 0.0700 0.9881
vt 0.0390 0.9881
vt 0.0390 0.8430
vt 0.0700 0.8430
vt 0.8279 0.0151
vt 0.8279 0.2454
vt 0.5695 0.9060
vt 0.5695 0.9569
vt 0.6742 0.4720
vt 0.6742 0.5584
vt 0.4145 0.0151
vt 0.4145 0.2454
vt 0.2978 0.4720
vt 0.2978 0.5584
vt 0.7460 0.7078
vt 0.7460 0.7583
vt 0.0094 0.8025
vt 0.0974 0.8025
vt 0.0094 0.9881
vt 0.0974 0.9881
vt 0.0330 0.7236
vt 0.0102 0.6839
vt 0.0982 0.6839
vt 0.0736 0.7236
vt 0.0736 0.7882
vt 0.0330 0.7882
vt 0.0102 0.7882
vt 0.0982 0.7882
vt 0.6813 0.7583
vt 0.6813 0.7078
vt 0.3927 0.7078
vt 0.3930 0.7583
vt 0.2401 0.4720
vt 0.0161 0.4720
vt 0.0161 0.5584
vt 0.2401 0.5584
vt 0.4284 0.5584
vt 0.6274 0.5584
vt 0.6274 0.4720
vt 0.4284 0.4720
vt 0.2261 0.9569
vt 0.2995 0.9569
vt 0.3000 0.9060
vt 0.2266 0.9060
vt 0.3606 0.5584
vt 0.3606 0.4720
vt 0.7210 0.5584
vt 0.7210 0.4720
vt 0.5166 0.9569
vt 0.5166 0.9060
vt 0.9756 0.7216
vt 0.9246 0.7214
vt 0.9246 0.7721
vt 0.9756 0.7721
vt 0.9231 0.7122
vt 0.9231 0.6612
vt 0.8827 0.2454
vt 0.8827 0.0151
vt 0.5563 0.2454
vt 0.7731 0.2454
vt 0.7731 0.0151
vt 0.5563 0.0151
vt 0.4819 0.2454
vt 0.4839 0.0151
vt 0.3498 0.2454
vt 0.3498 0.0151
vt 0.0653 0.0151
vt 0.0653 0.2454
vt 0.0700 0.9881
vt 0.0700 0.8430
vt 0.0390 0.8430
vt 0.0390 0.9881
vt 0.8279 0.2454
vt 0.8279 0.0151
vt 0.5695 0.9569
vt 0.5695 0.9060
vt 0.6742 0.5584
vt 0.6742 0.4720
vt 0.4145 0.2454
vt 0.4145 0.0151
vt 0.2978 0.5584
vt 0.2978 0.4720
vt 0.7460 0.7583
vt 0.7460 0.7078
vt 0.0974 0.8025
vt 0.0094 0.8025
vt 0.0094 0.9881
vt 0.0974 0.9881
vt 0.0330 0.7236
vt 0.0736 0.7236
vt 0.0982 0.6839
vt 0.0102 0.6839
vt 0.0736 0.7882
vt 0.0330 0.7882
vt 0.0102 0.7882
vt 0.0982 0.7882
vt 0.6813 0.7583
vt 0.6813 0.7078
vt 0.3927 0.7078
vt 0.3930 0.7583
vt 0.2401 0.4720
vt 0.0161 0.4720
vt 0.0161 0.5584
vt 0.2401 0.5584
vt 0.4284 0.5584
vt 0.6274 0.5584
vt 0.6274 0.4720
vt 0.4284 0.4720
vt 0.2261 0.9569
vt 0.2995 0.9569
vt 0.3000 0.9060
vt 0.2266 0.9060
vt 0.3606 0.5584
vt 0.3606 0.4720
vt 0.7210 0.5584
vt 0.7678 0.5584
vt 0.7678 0.4720
vt 0.7210 0.4720
vt 0.5166 0.9569
vt 0.5166 0.9060
vt 0.9231 0.7122
vt 0.9760 0.7122
vt 0.9760 0.6612
vt 0.9231 0.6612
vt 0.9375 0.0151
vt 0.8827 0.0151
vt 0.7731 0.0151
vt 0.5563 0.0151
vt 0.4839 0.0151
vt 0.3498 0.0151
vt 0.0653 0.0151
vt 0.0700 0.9881
vt 0.0700 0.8430
vt 0.0390 0.8430
vt 0.0390 0.9881
vt 0.8279 0.0151
vt 0.5695 0.9569
vt 0.5695 0.9060
vt 0.6742 0.5584
vt 0.6742 0.4720
vt 0.4145 0.0151
vt 0.2978 0.5584
vt 0.2978 0.4720
vt 0.7460 0.7583
vt 0.7460 0.7078
vt 0.0974 0.8025
vt 0.0094 0.8025
vt 0.0094 0.9881
vt 0.0974 0.9881
vt 0.0330 0.7236
vt 0.0736 0.7236
vt 0.0982 0.6839
vt 0.0102 0.6839
vt 0.0736 0.7882
vt 0.0330 0.7882
vt 0.0102 0.7882
vt 0.0982 0.7882
vt 0.6813 0.7583
vt 0.3930 0.7583
vt 0.3927 0.7078
vt 0.6813 0.7078
vt 0.2401 0.4720
vt 0.2401 0.5584
vt 0.0161 0.5584
vt 0.0161 0.4720
vt 0.4284 0.5584
vt 0.4284 0.4720
vt 0.6274 0.4720
vt 0.6274 0.5584
vt 0.2261 0.9569
vt 0.2266 0.9060
vt 0.3000 0.9060
vt 0.2995 0.9569
vt 0.3606 0.5584
vt 0.3606 0.4720
vt 0.7210 0.5584
vt 0.7210 0.4720
vt 0.5166 0.9060
vt 0.5166 0.9569
vt 0.9756 0.7216
vt 0.9756 0.7721
vt 0.9246 0.7721
vt 0.9246 0.7214
vt 0.9231 0.7122
vt 0.9231 0.6612
vt 0.8827 0.0151
vt 0.5563 0.0151
vt 0.7731 0.0151
vt 0.4839 0.0151
vt 0.0653 0.0151
vt 0.3498 0.0151
vt 0.0700 0.9881
vt 0.0390 0.9881
vt 0.0390 0.8430
vt 0.0700 0.8430
vt 0.8279 0.0151
vt 0.5695 0.9060
vt 0.5695 0.9569
vt 0.6742 0.4720
vt 0.6742 0.5584
vt 0.4145 0.0151
vt 0.2978 0.4720
vt 0.2978 0.5584
vt 0.7460 0.7078
vt 0.7460 0.7583
vt 0.0094 0.8025
vt 0.0974 0.8025
vt 0.0094 0.9881
vt 0.0974 0.9881
vt 0.0330 0.7236
vt 0.0102 0.6839
vt 0.0982 0.6839
vt 0.0736 0.7236
vt 0.0736 0.7882
vt 0.0330 0.7882
vt 0.0102 0.7882
vt 0.0982 0.7882
vn 0.0017 1.0000 -0.0093
vn 0.0041 -0.0347 0.9994
vn 0.0093 0.0546 0.9985
vn 0.0000 1.0000 -0.0000
vn 0.0182 0.0510 0.9985
vn 0.0253 0.0472 0.9986
vn 0.0002 0.9999 0.0161
vn 0.0002 0.9999 0.0158
vn 0.0000 0.9999 0.0157
vn 0.0001 0.9999 0.0156
vn 0.0250 0.0095 0.9996
vn 0.0002 0.9999 0.0160
vn 0.0499 0.0481 0.9976
vn 0.0250 0.0469 0.9986
vn 0.0005 0.9999 0.0157
vn 0.0339 0.0244 0.9991
vn -0.0017 0.0478 0.9989
vn 0.0000 -1.0000 -0.0000
vn -0.9998 0.0119 0.0167
vn 0.9999 -0.0120 -0.0119
vn -0.0007 0.0010 1.0000
vn -0.9989 0.0052 0.0458
vn 0.9999 -0.0012 -0.0151
vn -0.0017 1.0000 -0.0093
vn -0.0041 -0.0347 0.9994
vn -0.0093 0.0546 0.9985
vn -0.0182 0.0510 0.9985
vn -0.0253 0.0472 0.9986
vn -1.0000 0.0000 0.0000
vn -0.0002 0.9999 0.0161
vn -0.0002 0.9999 0.0158
vn -0.0001 0.9999 0.0156
vn -0.0250 0.0095 0.9996
vn -0.0002 0.9999 0.0160
vn -0.0499 0.0481 0.9976
vn -0.0250 0.0469 0.9986
vn -0.0005 0.9999 0.0157
vn -0.0339 0.0244 0.9991
vn 0.0017 0.0478 0.9989
vn 0.9998 0.0119 0.0167
vn -0.9999 -0.0120 -0.0119
vn 0.0007 0.0010 1.0000
vn 0.9989 0.0052 0.0458
vn -0.9999 -0.0012 -0.0151
vn 0.0017 1.0000 0.0093
vn 0.0041 -0.0347 -0.9994
vn 0.0093 0.0546 -0.9985
vn 0.0182 0.0510 -0.9985
vn 0.0253 0.0472 -0.9986
vn 0.0002 0.9999 -0.0161
vn 0.0002 0.9999 -0.0158
vn 0.0000 0.9999 -0.0157
vn 0.0001 0.9999 -0.0156
vn 0.0250 0.0095 -0.9996
vn 0.0002 0.9999 -0.0160
vn 0.0499 0.0481 -0.9976
vn 0.0250 0.0469 -0.9986
vn 0.0005 0.9999 -0.0157
vn 0.0339 0.0244 -0.9991
vn -0.0017 0.0478 -0.9989
vn -0.9998 0.0119 -0.0167
vn 0.9999 -0.0120 0.0119
vn -0.0007 0.0010 -1.0000
vn -0.9989 0.0052 -0.0458
vn 0.9999 -0.0012 0.0151
vn -0.0017 1.0000 0.0093
vn -0.0041 -0.0347 -0.9994
vn -0.0093 0.0546 -0.9985
vn -0.0182 0.0510 -0.9985
vn -0.0253 0.0472 -0.9986
vn -0.0002 0.9999 -0.0161
vn -0.0002 0.9999 -0.0158
vn -0.0001 0.9999 -0.0156
vn -0.0250 0.0095 -0.9996
vn -0.0002 0.9999 -0.0160
vn -0.0499 0.0481 -0.9976
vn -0.0250 0.0469 -0.9986
vn -0.0005 0.9999 -0.0157
vn -0.0339 0.0244 -0.9991
vn 0.0017 0.0478 -0.9989
vn 0.9998 0.0119 -0.0167
vn -0.9999 -0.0120 0.0119
vn 0.0007 0.0010 -1.0000
vn 0.9989 0.0052 -0.0458
vn -0.9999 -0.0012 0.0151
usemtl Material.000
s off
f 9/1/1 10/2/1 4/3/1 3/4/1
f 1/5/2 3/6/2 4/7/2 2/8/2
f 6/9/3 5/10/3 7/11/3 8/12/3
f 26/13/4 24/14/4 6/15/4 11/16/4
f 24/17/5 21/18/5 5/10/5 6/9/5
f 15/19/6 14/20/6 45/21/6 46/22/6
f 11/16/4 6/15/4 8/23/4 12/24/4
f 18/25/4 15/26/4 46/27/4 52/28/4
f 110/29/7 18/30/7 52/31/7 156/32/7
f 106/33/8 11/34/8 12/35/8 107/36/8
f 112/37/9 26/38/9 11/34/9 106/33/9
f 105/39/10 108/40/10 10/41/10 9/42/10
f 14/43/11 13/44/11 29/45/11 30/46/11
f 107/36/12 12/35/12 17/47/12 109/48/12
f 109/48/12 17/47/12 18/30/12 110/29/12
f 12/24/4 8/23/4 16/49/4 17/50/4
f 8/12/13 7/11/13 13/51/13 16/52/13
f 16/52/14 13/51/14 14/20/14 15/19/14
f 105/39/15 9/42/15 25/53/15 111/54/15
f 111/54/9 25/53/9 26/38/9 112/37/9
f 3/6/16 1/5/16 22/55/16 23/56/16
f 23/56/17 22/55/17 21/18/17 24/17/17
f 9/1/4 3/4/4 23/57/4 25/58/4
f 29/45/18 31/59/18 32/60/18 30/46/18
f 13/44/19 19/61/19 31/59/19 29/45/19
f 20/62/20 14/43/20 30/46/20 32/60/20
f 34/63/18 35/64/18 36/65/18 33/66/18
f 21/67/21 22/68/21 34/63/21 33/66/21
f 22/68/22 27/69/22 35/64/22 34/63/22
f 28/70/23 21/67/23 33/66/23 36/65/23
f 15/26/4 18/25/4 17/47/4 16/49/4
f 24/14/4 26/13/4 25/53/4 23/57/4
f 47/71/24 39/72/24 40/73/24 48/74/24
f 37/75/25 38/76/25 40/77/25 39/78/25
f 42/79/26 44/80/26 43/81/26 41/82/26
f 66/83/4 49/84/4 42/85/4 64/86/4
f 64/87/27 42/79/27 41/82/27 61/88/27
f 55/89/28 46/22/28 45/21/28 54/90/28
f 49/84/4 50/91/4 44/92/4 42/85/4
f 51/93/29 45/94/29 46/95/29 52/96/29
f 58/97/4 52/28/4 46/27/4 55/98/4
f 159/99/30 156/32/30 52/31/30 58/100/30
f 154/101/31 155/102/31 50/103/31 49/104/31
f 161/105/9 154/101/9 49/104/9 66/106/9
f 153/107/32 47/108/32 48/109/32 157/110/32
f 54/111/33 70/112/33 69/113/33 53/114/33
f 155/102/34 158/115/34 57/116/34 50/103/34
f 158/115/34 159/99/34 58/100/34 57/116/34
f 50/91/4 57/117/4 56/118/4 44/92/4
f 44/80/35 56/119/35 53/120/35 43/81/35
f 56/119/36 55/89/36 54/90/36 53/120/36
f 153/107/37 160/121/37 65/122/37 47/108/37
f 160/121/9 161/105/9 66/106/9 65/122/9
f 39/78/38 63/123/38 62/124/38 37/75/38
f 63/123/39 64/87/39 61/88/39 62/124/39
f 47/71/4 65/125/4 63/126/4 39/72/4
f 69/113/18 70/112/18 72/127/18 71/128/18
f 53/114/40 69/113/40 71/128/40 59/129/40
f 60/130/41 72/127/41 70/112/41 54/111/41
f 74/131/18 73/132/18 76/133/18 75/134/18
f 61/135/42 73/132/42 74/131/42 62/136/42
f 62/136/43 74/131/43 75/134/43 67/137/43
f 68/138/44 76/133/44 73/132/44 61/135/44
f 55/98/4 56/118/4 57/116/4 58/97/4
f 64/86/4 63/126/4 65/122/4 66/83/4
f 85/139/45 79/140/45 80/141/45 86/142/45
f 77/143/46 78/144/46 80/145/46 79/146/46
f 82/147/47 84/148/47 83/149/47 81/150/47
f 102/151/4 87/152/4 82/153/4 100/154/4
f 100/155/48 82/147/48 81/150/48 97/156/48
f 91/157/49 130/158/49 129/159/49 90/160/49
f 87/152/4 88/161/4 84/162/4 82/153/4
f 94/163/4 136/164/4 130/165/4 91/166/4
f 110/29/50 156/32/50 136/167/50 94/168/50
f 106/33/51 107/36/51 88/169/51 87/170/51
f 112/37/52 106/33/52 87/170/52 102/171/52
f 105/39/53 85/172/53 86/173/53 108/40/53
f 90/174/54 114/175/54 113/176/54 89/177/54
f 107/36/55 109/48/55 93/178/55 88/169/55
f 109/48/55 110/29/55 94/168/55 93/178/55
f 88/161/4 93/179/4 92/180/4 84/162/4
f 84/148/56 92/181/56 89/182/56 83/149/56
f 92/181/57 91/157/57 90/160/57 89/182/57
f 105/39/58 111/54/58 101/183/58 85/172/58
f 111/54/52 112/37/52 102/171/52 101/183/52
f 79/146/59 99/184/59 98/185/59 77/143/59
f 99/184/60 100/155/60 97/156/60 98/185/60
f 85/139/4 101/186/4 99/187/4 79/140/4
f 113/176/18 114/175/18 116/188/18 115/189/18
f 89/177/61 113/176/61 115/189/61 95/190/61
f 96/191/62 116/188/62 114/175/62 90/174/62
f 118/192/18 117/193/18 120/194/18 119/195/18
f 97/196/63 117/193/63 118/192/63 98/197/63
f 98/197/64 118/192/64 119/195/64 103/198/64
f 104/199/65 120/194/65 117/193/65 97/196/65
f 91/166/4 92/180/4 93/178/4 94/163/4
f 100/154/4 99/187/4 101/183/4 102/151/4
f 131/200/66 132/201/66 124/202/66 123/203/66
f 121/204/67 123/205/67 124/206/67 122/207/67
f 126/208/68 125/209/68 127/210/68 128/211/68
f 150/212/4 148/213/4 126/214/4 133/215/4
f 148/216/69 145/217/69 125/209/69 126/208/69
f 139/218/70 138/219/70 129/159/70 130/158/70
f 133/215/4 126/214/4 128/220/4 134/221/4
f 135/222/29 136/223/29 130/224/29 129/225/29
f 142/226/4 139/227/4 130/165/4 136/164/4
f 159/99/71 142/228/71 136/167/71 156/32/71
f 154/101/72 133/229/72 134/230/72 155/102/72
f 161/105/52 150/231/52 133/229/52 154/101/52
f 153/107/73 157/110/73 132/232/73 131/233/73
f 138/234/74 137/235/74 162/236/74 163/237/74
f 155/102/75 134/230/75 141/238/75 158/115/75
f 158/115/75 141/238/75 142/228/75 159/99/75
f 134/221/4 128/220/4 140/239/4 141/240/4
f 128/211/76 127/210/76 137/241/76 140/242/76
f 140/242/77 137/241/77 138/219/77 139/218/77
f 153/107/78 131/233/78 149/243/78 160/121/78
f 160/121/52 149/243/52 150/231/52 161/105/52
f 123/205/79 121/204/79 146/244/79 147/245/79
f 147/245/80 146/244/80 145/217/80 148/216/80
f 131/200/4 123/203/4 147/246/4 149/247/4
f 162/236/18 164/248/18 165/249/18 163/237/18
f 137/235/81 143/250/81 164/248/81 162/236/81
f 144/251/82 138/234/82 163/237/82 165/249/82
f 167/252/18 168/253/18 169/254/18 166/255/18
f 145/256/83 146/257/83 167/252/83 166/255/83
f 146/257/84 151/258/84 168/253/84 167/252/84
f 152/259/85 145/256/85 166/255/85 169/254/85
f 139/227/4 142/226/4 141/238/4 140/239/4
f 148/213/4 150/212/4 149/243/4 147/246/4
