# Blender v2.77 (sub 0) OBJ File: 'arvorelaranja.blend'
# www.blender.org
mtllib arvorelaranja.mtl
o Cube
v 0.558301 0.020893 -0.558301
v 0.558301 0.020893 0.558301
v -0.558301 0.020893 0.558301
v -0.558301 0.020893 -0.558301
v 0.558301 2.811347 -0.558301
v 0.558300 2.811347 0.558301
v -0.558301 2.811347 0.558301
v -0.558301 2.811347 -0.558301
v -0.558301 7.307773 1.445944
v 0.558300 7.307773 1.445944
v -0.558301 2.811347 1.445944
v 0.558300 2.811347 1.445944
v 0.558301 7.307773 -0.558301
v 0.558300 7.307773 0.558301
v -0.558301 7.307773 -0.558301
v -0.558301 7.307773 0.558301
v -1.416841 2.811347 0.558301
v -1.416841 2.811347 -0.558301
v -1.416841 7.307773 0.558301
v -1.416841 7.307773 -0.558301
v 1.460496 2.811347 -0.558300
v 1.460495 2.811347 0.558302
v 1.460496 7.307773 -0.558300
v 1.460495 7.307773 0.558302
v 0.558301 2.811347 -1.387738
v -0.558301 2.811347 -1.387738
v 0.558301 7.307773 -1.387738
v -0.558301 7.307773 -1.387738
vt 0.489062 0.642246
vt 0.489062 0.739978
vt 0.391329 0.739978
vt 0.391329 0.642246
vt 0.922174 0.000133
vt 0.922174 0.393690
vt 0.824442 0.393690
vt 0.824442 0.000133
vt 0.293331 0.717162
vt 0.293331 0.472923
vt 0.391063 0.472923
vt 0.391063 0.717162
vt 0.000133 0.717162
vt 0.000133 0.472923
vt 0.097866 0.472923
vt 0.097866 0.717162
vt 0.195598 0.472923
vt 0.195598 0.717162
vt 0.564207 0.471649
vt 0.466474 0.471649
vt 0.466474 0.393957
vt 0.564207 0.393957
vt 0.999867 0.000133
vt 0.999867 0.393690
vt 0.498726 0.393690
vt 0.498726 0.000133
vt 0.573871 0.000133
vt 0.573872 0.393690
vt 0.426128 0.393690
vt 0.426128 0.000133
vt 0.564207 0.569382
vt 0.466474 0.569382
vt 0.000133 0.395230
vt 0.097866 0.395230
vt 0.671604 0.000133
vt 0.671604 0.393690
vt 0.746749 0.393690
vt 0.746749 0.000133
vt 0.643173 0.471649
vt 0.643173 0.569382
vt 0.097866 0.397777
vt 0.195598 0.397777
vt 0.391329 0.569382
vt 0.391329 0.471649
vt 0.176832 0.000133
vt 0.176832 0.393690
vt 0.079099 0.393690
vt 0.079099 0.000133
vt 0.255798 0.000133
vt 0.255798 0.393690
vt 0.293331 0.393957
vt 0.391063 0.393957
vt 0.000133 0.393690
vt 0.000133 0.000133
vt 0.328396 0.000133
vt 0.328396 0.393690
vt 0.195598 0.400325
vt 0.293331 0.400325
vt 0.564207 0.641980
vt 0.466475 0.641980
vn 0.000000 -1.000000 -0.000000
vn -0.000000 0.000000 1.000000
vn 1.000000 0.000000 0.000000
vn -1.000000 -0.000000 -0.000000
vn 0.000000 0.000000 -1.000000
vn 0.000000 1.000000 0.000000
usemtl Material.001
s off
f 1/1/1 2/2/1 3/3/1 4/4/1
f 12/5/2 10/6/2 9/7/2 11/8/2
f 1/9/3 5/10/3 6/11/3 2/12/3
f 2/13/2 6/14/2 7/15/2 3/16/2
f 3/16/4 7/15/4 8/17/4 4/18/4
f 5/10/5 1/9/5 4/18/5 8/17/5
f 14/19/6 16/20/6 9/21/6 10/22/6
f 6/23/3 14/24/3 10/6/3 12/5/3
f 15/25/5 8/26/5 18/27/5 20/28/5
f 8/26/4 15/25/4 28/29/4 26/30/4
f 13/31/6 15/32/6 16/20/6 14/19/6
f 7/15/1 6/14/1 12/33/1 11/34/1
f 17/35/4 19/36/4 20/28/4 18/27/4
f 16/37/4 7/38/4 11/8/4 9/7/4
f 13/31/6 14/19/6 24/39/6 23/40/6
f 8/17/1 7/15/1 17/41/1 18/42/1
f 7/38/2 16/37/2 19/36/2 17/35/2
f 16/20/6 15/32/6 20/43/6 19/44/6
f 21/45/3 23/46/3 24/47/3 22/48/3
f 5/49/5 13/50/5 23/46/5 21/45/5
f 6/11/1 5/10/1 21/51/1 22/52/1
f 14/53/2 6/54/2 22/48/2 24/47/2
f 25/55/5 26/30/5 28/29/5 27/56/5
f 5/10/1 8/17/1 26/57/1 25/58/1
f 13/50/3 5/49/3 25/55/3 27/56/3
f 15/32/6 13/31/6 27/59/6 28/60/6
