# Blender v2.77 (sub 0) OBJ File: 'tronco.blend'
# www.blender.org
mtllib tronco.mtl
o Cube
v 1.000000 0.020628 -4.145852
v 1.000000 0.020628 5.717791
v -1.000000 0.020628 5.717791
v -1.000000 0.020628 -4.145852
v 1.000000 2.020627 -4.145851
v 0.999999 2.020627 5.717792
v -1.000000 2.020627 5.717791
v -1.000000 2.020627 -4.145852
vt 0.415643 0.415643
vt 0.415642 0.000100
vt 0.499900 0.000100
vt 0.499900 0.415643
vt 0.415643 0.499900
vt 0.499900 0.499900
vt 0.499900 0.915443
vt 0.415643 0.915443
vt 0.000100 0.499900
vt 0.000100 0.415643
vt 0.999900 0.000100
vt 0.999900 0.084357
vt 0.915643 0.084357
vt 0.915643 0.000100
vt 0.915443 0.415642
vt 0.915443 0.499900
vn 0.000000 -1.000000 -0.000000
vn 0.000000 1.000000 0.000000
vn 1.000000 -0.000000 0.000000
vn -0.000000 -0.000000 1.000000
vn -1.000000 -0.000000 -0.000000
vn 0.000000 0.000000 -1.000000
usemtl Material.001
s off
f 1/1/1 2/2/1 3/3/1 4/4/1
f 5/5/2 8/6/2 7/7/2 6/8/2
f 1/1/3 5/5/3 6/9/3 2/10/3
f 2/11/4 6/12/4 7/13/4 3/14/4
f 3/15/5 7/16/5 8/6/5 4/4/5
f 5/5/6 1/1/6 4/4/6 8/6/6
