# Blender v2.77 (sub 0) OBJ File: 'arbusto.blend'
# www.blender.org
mtllib arbusto.mtl
o Cube.004_Cube.007
v -0.298356 0.012630 0.119543
v -0.298356 0.421409 0.119543
v -0.298356 0.012630 -0.571063
v -0.298356 0.421409 -0.571063
v 0.392250 0.012630 0.119543
v 0.392250 0.421409 0.119543
v 0.392250 0.012630 -0.571063
v 0.392250 0.421409 -0.571063
v -0.298356 0.012630 0.613918
v -0.298356 0.421409 0.613918
v 0.392250 0.421409 0.613918
v 0.392250 0.012630 0.613918
v -0.633911 0.012630 0.119543
v -0.633911 0.421409 0.119543
v -0.633911 0.421409 -0.571063
v -0.633911 0.012630 -0.571063
v 0.392250 0.818159 0.119543
v -0.298356 0.818159 0.119543
v 0.392250 0.818159 0.613918
v -0.298356 0.818159 0.613918
vt 0.692038 0.092521
vt 0.692038 0.000104
vt 0.767901 0.000104
vt 0.767901 0.092521
vt 0.535906 0.092521
vt 0.535906 0.000104
vt 0.379774 0.092521
vt 0.379774 0.000104
vt 0.268005 0.092521
vt 0.268005 0.000104
vt 0.111873 0.258290
vt 0.268005 0.258290
vt 0.268005 0.414422
vt 0.111873 0.414422
vt 0.500209 0.182427
vt 0.500209 0.338560
vt 0.344076 0.338560
vt 0.344076 0.182427
vt 0.111873 0.092521
vt 0.111873 0.000104
vt 0.000104 0.092521
vt 0.000104 0.000104
vt 0.000104 0.414422
vt 0.000104 0.258290
vt 0.111873 0.182218
vt 0.000104 0.182218
vt 0.924033 0.092521
vt 0.924033 0.000105
vt 0.999896 0.000104
vt 0.999896 0.092521
vt 0.111873 0.182427
vt 0.268005 0.182427
vt 0.268214 0.338560
vt 0.268214 0.182427
vt 0.424346 0.450537
vt 0.268214 0.450537
vt 0.268214 0.338768
vt 0.424346 0.338768
vt 0.379774 0.182218
vt 0.268005 0.182218
vt 0.424346 0.540234
vt 0.268214 0.540234
vn 0.000000 0.000000 -1.000000
vn 1.000000 0.000000 0.000000
vn 0.000000 -1.000000 0.000000
vn 0.000000 1.000000 0.000000
vn 0.000000 0.000000 1.000000
vn -1.000000 0.000000 0.000000
usemtl Material.002
s off
f 4/1/1 3/2/1 16/3/1 15/4/1
f 4/1/1 8/5/1 7/6/1 3/2/1
f 8/5/2 6/7/2 5/8/2 7/6/2
f 5/8/2 6/7/2 11/9/2 12/10/2
f 1/11/3 3/12/3 7/13/3 5/14/3
f 6/15/4 8/16/4 4/17/4 2/18/4
f 11/9/5 10/19/5 9/20/5 12/10/5
f 2/21/6 1/22/6 9/20/6 10/19/6
f 1/11/3 5/14/3 12/23/3 9/24/3
f 2/21/6 10/19/6 20/25/6 18/26/6
f 14/27/6 15/4/6 16/3/6 13/28/6
f 1/29/5 2/30/5 14/27/5 13/28/5
f 3/12/3 1/11/3 13/31/3 16/32/3
f 2/18/4 4/17/4 15/33/4 14/34/4
f 17/35/4 18/36/4 20/37/4 19/38/4
f 11/9/2 6/7/2 17/39/2 19/40/2
f 10/19/5 11/9/5 19/40/5 20/25/5
f 6/41/1 2/42/1 18/36/1 17/35/1
