# Blender v2.77 (sub 0) OBJ File: 'arvores2.blend'
# www.blender.org
mtllib arvoresVerde3.mtl
o Cube.002_Cube.005
v 0.074873 -0.021048 0.169449
v 0.074873 1.238610 0.169449
v 0.074873 -0.021048 -0.133129
v 0.074873 1.238610 -0.133129
v 0.377451 -0.021048 0.169449
v 0.377451 1.238610 0.169449
v 0.377451 -0.021048 -0.133129
v 0.377451 1.238610 -0.133129
v -1.595702 1.398409 1.840024
v -1.595702 1.398409 -1.803704
v 2.048026 1.398409 -1.803704
v 2.048026 1.398409 1.840024
v -1.595702 4.160644 1.840024
v -1.595702 4.160644 -1.803704
v 2.048026 4.160644 -1.803704
v 2.048026 4.160644 1.840024
v -1.331847 4.310805 1.576169
v -1.331847 4.310805 -1.539849
v 1.784171 4.310805 -1.539849
v 1.784171 4.310805 1.576169
vt 0.317515 0.547979
vt 0.296760 0.547979
vt 0.296760 0.461576
vt 0.317515 0.461576
vt 0.276006 0.547979
vt 0.276006 0.461576
vt 0.255251 0.547979
vt 0.255251 0.461576
vt 0.338269 0.547979
vt 0.338269 0.461576
vt 0.255251 0.440821
vt 0.276006 0.440821
vt 0.370111 0.325715
vt 0.390853 0.325766
vt 0.505757 0.440614
vt 0.255251 0.440614
vt 0.000169 0.000104
vt 0.250101 0.000190
vt 0.250035 0.189658
vt 0.000104 0.189572
vt 0.390899 0.305023
vt 0.370158 0.304972
vt 0.255254 0.190124
vt 0.505759 0.190124
vt 0.000104 0.445061
vt 0.000104 0.190124
vt 0.021417 0.211122
vt 0.021030 0.423841
vt 0.500033 0.000276
vt 0.749965 0.000362
vt 0.749899 0.189831
vt 0.499967 0.189744
vt 0.999896 0.000449
vt 0.999831 0.189917
vt 0.234117 0.212576
vt 0.233731 0.425295
vt 0.255044 0.191356
vt 0.255044 0.446293
vn -1.000000 0.000000 0.000000
vn 0.000000 0.000000 -1.000000
vn 1.000000 0.000000 0.000000
vn 0.000000 0.000000 1.000000
vn 0.000000 -1.000000 0.000000
vn 0.095200 -0.995500 0.000000
vn -0.095200 -0.995500 0.000000
vn 0.000000 -0.995500 0.095200
vn 0.000000 -0.995500 -0.095200
vn 0.000000 0.869100 0.494600
vn 0.000000 1.000000 0.000000
vn 0.000000 0.869100 -0.494600
vn 0.494600 0.869100 0.000000
vn -0.494600 0.869100 0.000000
usemtl Material
s off
f 2/1/1 4/2/1 3/3/1 1/4/1
f 4/2/2 8/5/2 7/6/2 3/3/2
f 8/5/3 6/7/3 5/8/3 7/6/3
f 6/9/4 2/1/4 1/4/4 5/10/4
f 1/11/5 3/12/5 7/6/5 5/8/5
f 6/13/6 8/14/6 11/15/6 12/16/6
f 12/17/3 11/18/3 15/19/3 16/20/3
f 4/21/7 2/22/7 9/23/7 10/24/7
f 2/22/8 6/13/8 12/16/8 9/23/8
f 8/14/9 4/21/9 10/24/9 11/15/9
f 13/25/10 16/26/10 20/27/10 17/28/10
f 10/29/1 9/30/1 13/31/1 14/32/1
f 9/30/4 12/33/4 16/34/4 13/31/4
f 11/18/2 10/29/2 14/32/2 15/19/2
f 20/27/11 19/35/11 18/36/11 17/28/11
f 15/37/12 14/38/12 18/36/12 19/35/12
f 16/26/13 15/37/13 19/35/13 20/27/13
f 14/38/14 13/25/14 17/28/14 18/36/14
